<svg xmlns="http://www.w3.org/2000/svg" viewBox="0 0 200 260">
  <!-- Base platform - Red -->
  <ellipse cx="100" cy="245" rx="55" ry="12" fill="#EA4335"/>
  
  <!-- Base platform top - Green -->
  <path d="M45 230 Q45 240 55 242 L145 242 Q155 240 155 230 L155 220 Q155 212 145 210 L55 210 Q45 212 45 220 Z" fill="#34A853"/>
  
  <!-- Neck - Green -->
  <path d="M70 210 Q60 180 70 140 Q80 100 95 80 L115 80 Q100 100 90 140 Q80 180 90 210 Z" fill="#34A853"/>
  
  <!-- Yellow stripe -->
  <path d="M55 200 Q40 150 55 100 Q70 60 95 45 L105 55 Q75 75 60 115 Q45 160 60 200 Z" fill="#FBBC04"/>
  
  <!-- Main body - Blue -->
  <path d="M40 190 Q25 140 45 85 Q65 35 100 20 Q120 12 140 25 Q155 35 160 55 Q162 70 155 80 L145 78 Q105 60 80 90 Q55 125 50 170 Q48 195 55 215 L50 218 Q40 210 40 190 Z" fill="#4285F4"/>
  
  <!-- Horn - Blue with yellow stripes -->
  <path d="M130 35 L145 8 L150 12 L138 38 Z" fill="#4285F4"/>
  <path d="M133 28 L137 20" stroke="#FBBC04" stroke-width="3"/>
  <path d="M136 22 L140 14" stroke="#FBBC04" stroke-width="3"/>
  
  <!-- Ear - Blue -->
  <path d="M115 30 Q120 20 130 18 Q135 18 138 25 Q140 32 135 38 Q125 35 115 30 Z" fill="#4285F4"/>
  
  <!-- Nose - Red -->
  <ellipse cx="165" cy="70" rx="12" ry="10" fill="#EA4335"/>
  
  <!-- Eye area -->
  <circle cx="125" cy="52" r="4" fill="#1a1a1a"/>
</svg>
